<?xml version="1.0" encoding="utf-8"?>
<!-- Generator: Adobe Illustrator 24.0.2, SVG Export Plug-In . SVG Version: 6.00 Build 0)  -->
<svg version="1.0" id="Capa_1" xmlns="http://www.w3.org/2000/svg" xmlns:xlink="http://www.w3.org/1999/xlink" x="0px" y="0px"
	 viewBox="0 0 198.4 198.4" style="enable-background:new 0 0 198.4 198.4;" xml:space="preserve">
<style type="text/css">
	.st0{fill:url(#SVGID_1_);}
	.st1{fill:#FFFFFF;}
</style>
<g>
	<linearGradient id="SVGID_1_" gradientUnits="userSpaceOnUse" x1="60.4317" y1="176.7744" x2="106.5617" y2="84.5144">
		<stop  offset="0" style="stop-color:#10AEC0"/>
		<stop  offset="1" style="stop-color:#168BC1"/>
	</linearGradient>
	<path class="st0" d="M154.2,191.6h-110c-20.6,0-37.3-16.7-37.3-37.3v-110c0-20.6,16.7-37.3,37.3-37.3h110
		c20.6,0,37.3,16.7,37.3,37.3v110C191.6,174.9,174.9,191.6,154.2,191.6z"/>
	<g>
		<path class="st1" d="M62.7,116.2c8,7.2,17.6,8,21.9,8.1c8.1,0.2,14.3-4.8,20.6-9.2c4.5-3.2,9.4-6.2,14.8-7.2
			c5.5-0.9,11.7,0.8,14.7,5.4c2.5,3.9,2.3,9.2,0.4,13.4c-9.3,21.1-40,26.2-57.8,13.8C65,132,63,118.5,62.7,116.2z"/>
		<circle class="st1" cx="81.9" cy="111" r="7.4"/>
		<circle class="st1" cx="84.7" cy="82.5" r="3.9"/>
		<circle class="st1" cx="95.5" cy="96.7" r="5"/>
		<path class="st1" d="M99.6,53.5c-30,0-54.2,24.3-54.2,54.2c0,30,24.3,54.2,54.2,54.2c30,0,54.2-24.3,54.2-54.2
			C153.8,77.8,129.6,53.5,99.6,53.5z M99.6,153.1c-25,0-45.3-20.3-45.3-45.3c0-25,20.3-45.3,45.3-45.3c25,0,45.3,20.3,45.3,45.3
			C144.9,132.8,124.6,153.1,99.6,153.1z"/>
		<path class="st1" d="M85.1,41.1H47.5c-1.2,0-2.2-1-2.2-2.2v-6.7c0-1.2,1-2.2,2.2-2.2h37.6c1.2,0,2.2,1,2.2,2.2v6.7
			C87.3,40.1,86.4,41.1,85.1,41.1z"/>
		<path class="st1" d="M132.5,28.4c3.8,0,6.8,2.9,6.8,6.8c0,3.8-2.9,6.7-6.8,6.7s-6.8-2.9-6.8-6.7C125.8,31.3,128.7,28.4,132.5,28.4
			z"/>
		<path class="st1" d="M149.1,28.4c3.8,0,6.8,2.9,6.8,6.8c0,3.8-2.9,6.7-6.8,6.7s-6.8-2.9-6.8-6.7C142.4,31.3,145.3,28.4,149.1,28.4
			z"/>
	</g>
</g>
</svg>
