<?xml version="1.0" encoding="utf-8"?>
<!-- Generator: Adobe Illustrator 24.1.0, SVG Export Plug-In . SVG Version: 6.00 Build 0)  -->
<svg version="1.1" id="Capa_1" xmlns="http://www.w3.org/2000/svg" xmlns:xlink="http://www.w3.org/1999/xlink" x="0px" y="0px"
	 viewBox="0 0 512 512" style="enable-background:new 0 0 512 512;" xml:space="preserve">
<style type="text/css">
	.st0{fill:#1F386B;}
	.st1{fill:#FFFFFF;stroke:#02004A;stroke-miterlimit:10;}
	.st2{fill:#FFFFFF;stroke:#1F386B;stroke-width:13;stroke-miterlimit:10;}
	.st3{fill:none;stroke:#1F386B;stroke-width:34;stroke-miterlimit:10;}
	.st4{fill:none;stroke:#1F386B;stroke-width:22;stroke-miterlimit:10;}
</style>
<path class="st0" d="M253.7,17.2H55.4C32.5,17.2,14,33.9,14,54.5V458c0,20.6,18.5,37.3,41.4,37.3h198.3c22.8,0,41.3-16.8,41.4-37.3
	V54.5C295,33.9,276.5,17.2,253.7,17.2z M278.5,458c0,12.4-11.1,22.4-24.8,22.4H55.4c-13.7,0-24.8-10.1-24.8-22.4v-44.8h247.9
	L278.5,458L278.5,458z M278.5,398.2H30.6V99.3h247.9L278.5,398.2L278.5,398.2z M278.5,84.4H30.6V54.5c0-12.4,11.1-22.4,24.8-22.4
	h198.3c13.7,0,24.8,10.1,24.8,22.4V84.4z"/>
<path class="st1" d="M255.5,479.4H53.2c-12.6,0-22.9-10.2-22.9-22.9V55c0-12.6,10.2-22.9,22.9-22.9h202.3
	c12.6,0,22.9,10.2,22.9,22.9v401.5C278.5,469.2,268.3,479.4,255.5,479.4z"/>
<polygon class="st2" points="251.3,30.4 201.5,80.9 114.6,80.9 60.2,30.8 159.4,30.7 "/>
<rect x="21.7" y="127.2" class="st2" width="469.6" height="253.9"/>
<line class="st3" x1="62.1" y1="253.5" x2="129.2" y2="319.2"/>
<line class="st3" x1="255.5" y1="186.8" x2="119.1" y2="331.9"/>
<line class="st3" x1="297.9" y1="196" x2="372.3" y2="196"/>
<line class="st4" x1="117.2" y1="429.9" x2="191.5" y2="429.9"/>
<line class="st3" x1="297.9" y1="255.2" x2="416.1" y2="255.2"/>
<line class="st3" x1="297.9" y1="317" x2="458.7" y2="317"/>
</svg>
