<?xml version="1.0" encoding="utf-8"?>
<!-- Generator: Adobe Illustrator 24.1.0, SVG Export Plug-In . SVG Version: 6.00 Build 0)  -->
<svg version="1.1" id="Capa_1" xmlns="http://www.w3.org/2000/svg" xmlns:xlink="http://www.w3.org/1999/xlink" x="0px" y="0px"
	 viewBox="0 0 512 512" style="enable-background:new 0 0 512 512;" xml:space="preserve">
<style type="text/css">
	.st0{fill:#3F5C6C;}
	.st1{fill:#ECF0F1;}
	.st2{fill:#285680;}
	.st3{fill:#BDC3C7;}
	.st4{fill:#F3D55B;}
	.st5{fill:#E64C3C;}
	.st6{fill:#547580;}
	.st7{fill:#84B5CB;}
	.st8{fill:#95A5A5;}
</style>
<g id="Page-1">
	<g id="_x30_18---Washing-Machine">
		<path id="Shape" class="st0" d="M476.7,0H35.3C15.8,0,0,15.8,0,35.3v441.4C0,496.2,15.8,512,35.3,512h441.4
			c19.5,0,35.3-15.8,35.3-35.3V35.3C512,15.8,496.2,0,476.7,0z"/>
		<path id="Shape_1_" class="st1" d="M256,158.9c-87.8,0-158.9,71.1-158.9,158.9S168.2,476.7,256,476.7s158.9-71.1,158.9-158.9
			S343.8,158.9,256,158.9z M354,377.6c-26.8,43.9-79.5,64.6-129,50.8s-83.7-59-83.8-110.4s34.1-96.6,83.6-110.5s102.2,6.7,129,50.6
			c1.3,2.1,1.7,4.7,1,7.1c-0.7,2.4-2.3,4.4-4.6,5.6l-18.9,9.4c-3,1.5-4.9,4.6-4.9,7.9v59.7c0,3.4,1.9,6.4,4.9,7.9l18.9,9.4
			c2.2,1.1,3.9,3.1,4.6,5.5C355.6,372.8,355.3,375.4,354,377.6L354,377.6z"/>
		<path id="Shape_2_" class="st2" d="M350.4,364.9l-18.9-9.4c-3-1.5-4.9-4.6-4.9-7.9V288c0-3.4,1.9-6.4,4.9-7.9l18.9-9.4
			c2.2-1.1,3.9-3.2,4.6-5.6c0.7-2.4,0.3-5-1-7.1c-26.8-43.9-79.6-64.5-129-50.6s-83.7,59.1-83.6,110.5c0,51.4,34.3,96.5,83.8,110.4
			s102.2-6.9,129-50.8c1.3-2.1,1.7-4.7,1-7.1C354.3,368,352.6,366,350.4,364.9L350.4,364.9z"/>
		<path id="Shape_3_" class="st3" d="M512,35.3v88.3H203V0h273.7C496.2,0,512,15.8,512,35.3z"/>
		<circle id="Oval" class="st1" cx="450.2" cy="61.8" r="26.5"/>
		<circle id="Oval_1_" class="st1" cx="361.9" cy="61.8" r="26.5"/>
		<circle id="Oval_2_" class="st4" cx="256" cy="61.8" r="8.8"/>
		<circle id="Oval_3_" class="st5" cx="291.3" cy="61.8" r="8.8"/>
		<path id="Shape_4_" class="st6" d="M35.3,185.4c-4.9,0-8.8-4-8.8-8.8v-17.7c0-4.9,4-8.8,8.8-8.8s8.8,4,8.8,8.8v17.7
			C44.1,181.4,40.2,185.4,35.3,185.4z"/>
		<path id="Shape_5_" class="st6" d="M35.3,406.1c-4.9,0-8.8-4-8.8-8.8V211.9c0-4.9,4-8.8,8.8-8.8s8.8,4,8.8,8.8v185.4
			C44.1,402.1,40.2,406.1,35.3,406.1z"/>
		<path id="Shape_6_" class="st7" d="M354,377.6c-27.5,45.6-82.8,66.2-133.5,49.7c-50.6-16.4-83.3-65.6-78.8-118.7
			c19.3,10.4,30.2,26.8,64.3,26.8c50.1,0,50.1-35.3,100-35.3c7-0.1,13.9,0.7,20.7,2.4v45.1c0,3.4,1.9,6.4,4.9,7.9l18.9,9.4
			c2.2,1.1,3.9,3.1,4.6,5.5C355.6,372.8,355.3,375.4,354,377.6L354,377.6z"/>
		<path id="Shape_7_" class="st1" d="M211.9,0v123.6H0V35.3C0,15.8,15.8,0,35.3,0H211.9z"/>
		<path id="Shape_8_" class="st8" d="M61.8,44.1h88.3c9.8,0,17.7,7.9,17.7,17.7v8.8c0,4.9-4,8.8-8.8,8.8H53c-4.9,0-8.8-4-8.8-8.8
			v-8.8C44.1,52,52,44.1,61.8,44.1z"/>
	</g>
</g>
</svg>
